<svg id="Group_39" data-name="Group 39" xmlns="http://www.w3.org/2000/svg" xmlns:xlink="http://www.w3.org/1999/xlink" width="33.143" height="29" viewBox="0 0 33.143 29">
  <defs>
    <clipPath id="clip-path">
      <rect id="Rectangle_58" data-name="Rectangle 58" width="33.143" height="29" fill="#a3a3a3"/>
    </clipPath>
  </defs>
  <g id="Group_38" data-name="Group 38" clip-path="url(#clip-path)">
    <path id="Path_23" data-name="Path 23" d="M24.035,0A7.749,7.749,0,0,0,19.2,1.673a11.024,11.024,0,0,0-2.831,3.405,11.023,11.023,0,0,0-2.831-3.405A7.749,7.749,0,0,0,8.694,0C3.737,0,0,4.054,0,9.43c0,5.808,4.663,9.781,11.721,15.8,1.2,1.022,2.557,2.179,3.97,3.414a1.023,1.023,0,0,0,1.346,0c1.412-1.235,2.771-2.393,3.97-3.415,7.058-6.015,11.721-9.988,11.721-15.8,0-5.376-3.737-9.43-8.694-9.43" fill="#a3a3a3"/>
  </g>
</svg>
