<svg id="Group_41" data-name="Group 41" xmlns="http://www.w3.org/2000/svg" xmlns:xlink="http://www.w3.org/1999/xlink" width="34.8" height="29" viewBox="0 0 34.8 29">
  <defs>
    <clipPath id="clip-path">
      <rect id="Rectangle_59" data-name="Rectangle 59" width="34.8" height="29" fill="#a3a3a3"/>
    </clipPath>
  </defs>
  <g id="Group_40" data-name="Group 40" clip-path="url(#clip-path)">
    <path id="Path_24" data-name="Path 24" d="M136.686,20.3a1.086,1.086,0,0,1-.786-.336l-7.613-7.975a1.088,1.088,0,0,1,.786-1.839h3.988V1.813A1.815,1.815,0,0,1,134.874,0H138.5a1.815,1.815,0,0,1,1.812,1.813V10.15H144.3a1.088,1.088,0,0,1,.786,1.839l-7.612,7.975a1.086,1.086,0,0,1-.786.336" transform="translate(-119.286 0)" fill="#a3a3a3"/>
    <path id="Path_25" data-name="Path 25" d="M32.263,347.134H2.538A2.54,2.54,0,0,1,0,344.6v-.725a2.54,2.54,0,0,1,2.538-2.538H32.263a2.54,2.54,0,0,1,2.537,2.538v.725a2.54,2.54,0,0,1-2.537,2.537" transform="translate(0 -318.134)" fill="#a3a3a3"/>
  </g>
</svg>
