<svg id="Group_35" data-name="Group 35" xmlns="http://www.w3.org/2000/svg" xmlns:xlink="http://www.w3.org/1999/xlink" width="22.985" height="29" viewBox="0 0 22.985 29">
  <defs>
    <clipPath id="clip-path">
      <rect id="Rectangle_54" data-name="Rectangle 54" width="22.985" height="29" fill="#a3a3a3"/>
    </clipPath>
  </defs>
  <g id="Group_34" data-name="Group 34" clip-path="url(#clip-path)">
    <path id="Path_19" data-name="Path 19" d="M132.108,465.812a4.381,4.381,0,0,0,8.019,0Z" transform="translate(-124.625 -439.428)" fill="#a3a3a3"/>
    <path id="Path_20" data-name="Path 20" d="M146.864,2.771a9.854,9.854,0,0,1,3.365.589v-.13A3.234,3.234,0,0,0,147,0h-.268A3.234,3.234,0,0,0,143.5,3.231v.128a9.873,9.873,0,0,1,3.364-.588" transform="translate(-135.372 0)" fill="#a3a3a3"/>
    <path id="Path_21" data-name="Path 21" d="M22.111,99.175H.873a.865.865,0,0,1-.853-.664.826.826,0,0,1,.454-.939,4.507,4.507,0,0,0,1.371-1.864c1.182-2.5,1.43-6.014,1.43-8.525a8.216,8.216,0,0,1,16.432-.033q0,.016,0,.033c0,2.511.248,6.028,1.43,8.525a4.506,4.506,0,0,0,1.371,1.864.826.826,0,0,1,.454.939.865.865,0,0,1-.853.664m.408-1.6h0Z" transform="translate(0 -74.493)" fill="#a3a3a3"/>
  </g>
</svg>
