<svg xmlns="http://www.w3.org/2000/svg" xmlns:xlink="http://www.w3.org/1999/xlink" width="76.723" height="89.769" viewBox="0 0 76.723 89.769">
  <defs>
    <clipPath id="clip-path">
      <rect id="Rectangle_14" data-name="Rectangle 14" width="76.723" height="89.769" fill="#111"/>
    </clipPath>
  </defs>
  <g id="Group_29" data-name="Group 29" transform="translate(0 0)">
    <g id="Group_3" data-name="Group 3" transform="translate(0 0)" clip-path="url(#clip-path)">
      <path id="Path_9" data-name="Path 9" d="M71.825,33.045l-4.1,15.032V18.029Zm-4.343,15.4-5.009-10.83,5.009-19.527Zm-16.836,3.67L62.312,37.854l5.114,11.058ZM47.95,64.25,50.438,52.4l16.689-3.181Zm9.959-1.882-9.661,1.963,6.774-5.308L67,49.635Zm-10.226,1.95-7.141-6.535,9.615-5.249Zm-7.228,6.393V58.039l7.118,6.517Zm-.124-13.094-9.466-5.2H49.847ZM31.566,42.075l8.51,6.445-9.543,3.587Zm-2.21-9.5.337-.081L34.278,31.4,31.45,41.3ZM28.016,26.8l-1.557-6.706,11.157.971-.936,1.248-7.413,9.878ZM40.331,1.48,54.113,19.745,44.988,17.46h0L40.361,16.3a.14.14,0,0,0-.03,0,.115.115,0,0,0-.029,0h0l-4.453,1.125-.135.033-9,2.251ZM61.142,13.493l6.124,3.555-12.79,2.763L43.069,4.7,40.8,1.688ZM42.12,1.761l14.931,3,10,11.875-26.01-15.1Zm8.244.272,5.491,2.234-13.7-2.755ZM67.419.37V10.407L57.395,4.665Zm0,16.32L57.664,5.105l9.756,5.587ZM54.6,20.04l12.836-2.773L62.31,37.247ZM51.661,32.409l2.8-12.07,7.629,17.029Zm-2.235,9.2L51.6,32.655,62,37.6Zm-.039.274L61.98,37.868,50.426,51.987ZM44.807,50.1,40.584,48.52l8.568-6.491L50.19,52.111Zm-4.476-1.41,9.316,3.484H31.065Zm-2.514-5.021a.107.107,0,0,0,.033.006h4.962a.106.106,0,0,0,.032-.006l5.825-1.584-7.062,5.351L40.33,48.4l-8.34-6.317Zm-3.3-12.2,4.247,3.615a.131.131,0,0,0,.08.03h2.978a.121.121,0,0,0,.078-.029l4.445-3.617,2.748,10.2H31.57Zm-.153-.35-2.243.53-2.606.627L36.2,23.358l1.275-1.7Zm3.57-10.039h4.853L46.228,31.1l-5.877-.971-.02,0-.022,0-5.679.97Zm6.112,1.23-.937-1.25,11.159-.973L52.708,26.8l-1.251,5.391Zm2.465,8.837-3.262-9.486,1.274,1.7,6.692,8.919-2.606-.627Zm4.522,1.34.337.081L49.247,41.3l-.333-1.235-2.327-8.639ZM36.062,17.63l4.269-1.08,2.183.547,2.25.562L42.8,20.834H37.913ZM24.805,4.266l5.49-2.234,8.214-.521Zm48.44,1.267a.19.19,0,0,0-.039-.215L67.735.023c-.041-.041-.091-.021-.161.009l-.137.06L57.116,4.515,50.439,1.8a.245.245,0,0,0-.039-.01L40.338,1.15l0,0-.006,0H40.32l-10.061.636a.151.151,0,0,0-.039.01L23.576,4.5a.131.131,0,0,0-.107.162c.028.134.173.093.173.093l14.9-2.995,1.5-.3L26.382,19.745c-.243.2-.12.593-.12.593l2.8,12.07.059.247,2.166,9.1v.007c0,.006,0,.011,0,.018,0,.205-.954,9.792-1.021,10.475l-.007.01c0,.008,0,.018,0,.028s-.006.016,0,.024.006.008.008.013a.085.085,0,0,0,.022.037.1.1,0,0,0,.024.029l.009.009,9.883,5.425v13.15a.125.125,0,0,0,.073.114.13.13,0,0,0,.052.011.126.126,0,0,0,.08-.031l7.4-6.4L58.005,62.6a.115.115,0,0,0,.077-.049l9.624-13.474a.121.121,0,0,0,0-.02c0-.007.011-.011.014-.02l4.348-15.959a.126.126,0,0,0,0-.065L67.759,17.2c0-.006.011-.009.015-.017Z" transform="translate(3.461 0)" fill="#111"/>
      <path id="Path_10" data-name="Path 10" d="M15.176,64.091H9.529L3.706,52.861h-.1q.207,2.649.207,4.045v7.184H0V48.151H5.625l5.8,11.078h.065q-.153-2.41-.153-3.87V48.151h3.837Z" transform="translate(0 7.102)" fill="#111"/>
      <path id="Path_11" data-name="Path 11" d="M20.25,56.132q0,4.623,3.216,4.621a2.766,2.766,0,0,0,2.426-1.121,6.155,6.155,0,0,0,.791-3.5,6.18,6.18,0,0,0-.8-3.526,2.732,2.732,0,0,0-2.393-1.139q-3.238,0-3.238,4.666m10.968,0q0,4.023-1.974,6.116a7.564,7.564,0,0,1-5.778,2.092,7.553,7.553,0,0,1-5.751-2.1q-2-2.1-2-6.126a8.5,8.5,0,0,1,1.99-6.077,7.594,7.594,0,0,1,5.783-2.1,7.551,7.551,0,0,1,5.767,2.084q1.962,2.083,1.962,6.116" transform="translate(2.318 7.07)" fill="#111"/>
      <path id="Path_12" data-name="Path 12" d="M4.307,73.418v3.346H5.821q2.017,0,2.017-1.7A1.465,1.465,0,0,0,7.3,73.843a2.486,2.486,0,0,0-1.565-.425Zm0-3.151H5.6a2.344,2.344,0,0,0,1.434-.382,1.33,1.33,0,0,0,.507-1.134q0-1.341-2.029-1.34H4.307ZM0,64.151H5.56a9.448,9.448,0,0,1,4.824.965,3.269,3.269,0,0,1,1.575,3,3.8,3.8,0,0,1-.686,2.29,3.075,3.075,0,0,1-1.81,1.222v.108a3.708,3.708,0,0,1,2.147,1.308,3.945,3.945,0,0,1,.666,2.376,4.076,4.076,0,0,1-1.629,3.418A7.141,7.141,0,0,1,6.2,80.091H0Z" transform="translate(0 9.462)" fill="#111"/>
      <path id="Path_13" data-name="Path 13" d="M32.111,73.577l-.687-2.615q-.239-.871-.583-2.257t-.452-1.984q-.1.556-.387,1.83t-1.282,5.026ZM33.79,80.1l-.785-2.988H27.827L27.02,80.1H22.289l5.2-16h5.745l5.266,16Z" transform="translate(3.287 9.453)" fill="#111"/>
      <path id="Path_14" data-name="Path 14" d="M42.225,71.052h.807q2.257,0,2.257-1.994,0-1.647-2.214-1.647h-.85Zm0,3.238v5.8H37.918V64.151H43.14q6.5,0,6.5,4.71a4.706,4.706,0,0,1-2.7,4.284l4.645,6.945H46.694l-3.379-5.8Z" transform="translate(5.592 9.462)" fill="#111"/>
      <path id="Path_15" data-name="Path 15" d="M61.6,75.278a4.7,4.7,0,0,1-.753,2.633A4.941,4.941,0,0,1,58.682,79.7a8.058,8.058,0,0,1-3.325.636,13.535,13.535,0,0,1-2.671-.223,9.936,9.936,0,0,1-2.246-.78V75.5A12.8,12.8,0,0,0,53,76.483a9.536,9.536,0,0,0,2.442.353,2.378,2.378,0,0,0,1.407-.332,1.024,1.024,0,0,0,.446-.856.94.94,0,0,0-.18-.573,2.1,2.1,0,0,0-.577-.495,23.445,23.445,0,0,0-2.121-1.026,10.2,10.2,0,0,1-2.339-1.374,4.231,4.231,0,0,1-1.156-1.526,5.061,5.061,0,0,1-.376-2.039,4.086,4.086,0,0,1,1.6-3.434,7.061,7.061,0,0,1,4.4-1.232A12.362,12.362,0,0,1,61.6,65.1l-1.32,3.325A9.543,9.543,0,0,0,56.425,67.4a2.011,2.011,0,0,0-1.221.294.893.893,0,0,0-.382.731,1.054,1.054,0,0,0,.485.839,18.469,18.469,0,0,0,2.633,1.354A7.277,7.277,0,0,1,60.8,72.6a4.329,4.329,0,0,1,.8,2.677" transform="translate(7.439 9.432)" fill="#111"/>
      <path id="Path_16" data-name="Path 16" d="M22.575,80.09H13.111V64.15h9.463v3.456H17.418v2.507h4.775v3.455H17.418v3.01h5.157Z" transform="translate(1.934 9.462)" fill="#111"/>
    </g>
  </g>
</svg>
