<svg xmlns="http://www.w3.org/2000/svg" xmlns:xlink="http://www.w3.org/1999/xlink" width="32" height="29" viewBox="0 0 32 29">
  <defs>
    <clipPath id="clip-path">
      <rect id="Rectangle_53" data-name="Rectangle 53" width="32" height="29" transform="translate(0.037 0.491)" fill="#a3a3a3"/>
    </clipPath>
  </defs>
  <g id="Group_33" data-name="Group 33" transform="translate(0.331 -0.491)">
    <g id="Group_32" data-name="Group 32" transform="translate(-0.368 0)" clip-path="url(#clip-path)">
      <path id="Path_18" data-name="Path 18" d="M15.78,0C7.079,0,0,6.371,0,14.2a13.129,13.129,0,0,0,2.508,7.682c-.311,3.439-1.144,5.991-2.354,7.2a.526.526,0,0,0,.372.9A.494.494,0,0,0,.6,29.978,28.093,28.093,0,0,0,9.34,27.169,17.112,17.112,0,0,0,15.78,28.4c8.7,0,15.78-6.371,15.78-14.2S24.482,0,15.78,0M8.416,16.307a2.1,2.1,0,1,1,2.1-2.1,2.106,2.106,0,0,1-2.1,2.1m7.364,0a2.1,2.1,0,1,1,2.1-2.1,2.106,2.106,0,0,1-2.1,2.1m7.364,0a2.1,2.1,0,1,1,2.1-2.1,2.106,2.106,0,0,1-2.1,2.1" transform="translate(0.257 0)" fill="#a3a3a3"/>
    </g>
  </g>
</svg>
